<svg xmlns="http://www.w3.org/2000/svg" xmlns:xlink="http://www.w3.org/1999/xlink" width="1600" zoomAndPan="magnify" viewBox="0 0 1200 1499.999933" height="2000" preserveAspectRatio="xMidYMid meet" version="1.0"><defs><clipPath id="2f5dfada51"><path d="M 4.6875 54.835938 L 1195.6875 54.835938 L 1195.6875 1445.335938 L 4.6875 1445.335938 Z M 4.6875 54.835938 " clip-rule="nonzero"/></clipPath></defs><g clip-path="url(#2f5dfada51)"><path fill="#7da691" d="M 519.246094 1090.3125 C 517.703125 1072.417969 512.765625 1055.148438 509.371094 1037.574219 C 501.347656 995.316406 495.796875 952.753906 486.535156 910.496094 C 477.285156 867.304688 470.179688 823.824219 455.992188 782.179688 C 454.753906 778.785156 455.382812 776.9375 458.453125 775.085938 C 472.027344 765.839844 482.820312 754.117188 491.472656 739.921875 C 501.652344 723.265625 501.652344 706.910156 492.402344 689.949219 C 478.828125 665.890625 460.320312 647.078125 435.328125 635.035156 C 426.691406 630.710938 417.746094 626.707031 409.097656 622.078125 C 400.765625 617.445312 393.367188 611.898438 388.429688 603.265625 C 381.03125 590 386.886719 579.820312 402.003906 579.515625 C 423.296875 578.902344 439.945312 588.148438 453.835938 603.570312 C 462.78125 613.75 469.871094 625.164062 476.980469 636.582031 C 486.546875 652.308594 499.816406 664.027344 515.851562 672.664062 C 528.492188 679.449219 536.519531 678.835938 547.324219 669.578125 C 549.480469 667.726562 551.328125 665.878906 553.179688 663.722656 C 566.449219 647.996094 576.015625 630.40625 584.652344 612.21875 C 587.433594 606.042969 586.808594 599.886719 582.804688 594.324219 C 560.898438 564.707031 533.75 541.886719 497.964844 530.164062 C 476.0625 523.074219 453.546875 520.292969 430.710938 518.75 C 421.460938 518.136719 412.199219 516.898438 404.480469 511.03125 C 396.761719 505.164062 395.230469 496.527344 400.472656 488.519531 C 411.890625 470.625 440.890625 461.683594 460.320312 470.011719 C 467.410156 473.097656 473.890625 477.410156 480.066406 481.734375 C 502.277344 498.085938 524.488281 514.425781 546.699219 530.472656 C 553.179688 535.101562 559.660156 539.105469 567.671875 540.957031 C 581.246094 544.042969 592.039062 536.949219 593.273438 523.058594 C 595.125 503.007812 593.273438 482.957031 583.09375 465.074219 C 551.621094 408.941406 500.71875 386.734375 442.726562 394.746094 C 399.847656 400.597656 362.199219 420.039062 325.179688 440.699219 C 322.714844 441.9375 321.785156 441.9375 320.546875 439.769531 C 314.691406 430.523438 306.972656 422.804688 298.335938 416.324219 C 266.25 393.1875 230.160156 387.640625 191.902344 391.644531 C 164.140625 394.730469 138.21875 404.285156 112.921875 416.003906 C 79.292969 431.730469 51.53125 454.257812 30.851562 485.097656 C 25.609375 493.121094 20.671875 501.453125 19.433594 511.324219 C 17.890625 522.113281 24.0625 529.527344 35.164062 529.21875 C 42.253906 529.21875 48.738281 527.0625 54.605469 523.671875 C 65.09375 517.816406 75.578125 511.644531 86.078125 506.09375 C 92.867188 502.398438 99.957031 498.699219 107.984375 497.765625 C 114.769531 496.835938 118.773438 498.699219 121.558594 504.246094 C 124.644531 510.101562 124.019531 515.96875 119.402344 520.597656 C 116.9375 523.058594 114.15625 525.230469 111.375 527.078125 C 89.164062 540.957031 65.410156 550.214844 38.570312 550.214844 C 22.535156 550.214844 13.882812 557 9.265625 572.726562 C 5.261719 586.605469 3.71875 601.109375 5.566406 615.597656 C 7.722656 631.949219 19.753906 640.890625 36.414062 637.804688 C 50.292969 635.34375 62.949219 629.167969 74.355469 620.839844 C 84.535156 613.441406 93.796875 605.113281 103.65625 597.089844 C 110.75 591.234375 118.164062 585.675781 126.175781 581.058594 C 143.140625 572.117188 155.796875 582.601562 159.800781 595.242188 C 162.585938 603.875 160.414062 608.8125 151.777344 612.203125 C 143.449219 615.292969 134.8125 616.527344 126.480469 618.058594 C 92.238281 624.539062 61.699219 639.347656 35.46875 662.164062 C 16.957031 677.890625 14.800781 695.480469 23.746094 719.539062 C 31.144531 739.589844 44.410156 742.371094 60.15625 728.171875 C 68.484375 720.773438 75.882812 712.445312 83.910156 704.421875 C 92.238281 696.09375 100.875 687.765625 110.75 681.285156 C 117.230469 676.960938 124.324219 673.566406 132.347656 674.5 C 141.292969 675.738281 148.078125 680.351562 151.472656 688.683594 C 154.867188 696.707031 151.167969 702.867188 145.617188 708.425781 C 142.222656 711.515625 138.828125 714.601562 135.128906 717.0625 C 118.773438 727.851562 101.503906 736.808594 82.378906 741.425781 C 75.59375 742.96875 68.804688 744.816406 62.019531 746.359375 C 53.074219 748.515625 48.136719 754.382812 46.902344 763.019531 C 44.117188 785.226562 49.363281 805.582031 61.085938 824.394531 C 67.875 834.878906 78.359375 835.8125 87.929688 828.09375 C 91.320312 825.3125 94.410156 821.917969 97.496094 818.527344 C 105.214844 810.503906 112.308594 802.175781 121.863281 796.625 C 125.5625 794.472656 129.582031 792.300781 133.894531 791.691406 C 140.984375 790.453125 148.703125 794.472656 152.097656 801.257812 C 154.878906 807.109375 153.335938 813.589844 147.464844 818.527344 C 141.917969 823.464844 135.128906 826.246094 128.34375 829.316406 C 118.773438 833.320312 110.136719 838.882812 103.65625 847.214844 C 93.476562 860.171875 95.632812 872.199219 109.832031 880.222656 C 117.855469 884.855469 126.492188 888.859375 134.199219 894.726562 C 160.734375 915.390625 182.640625 940.375 198.675781 969.996094 C 202.679688 977.390625 207.003906 977.710938 211.941406 970.925781 C 215.335938 965.988281 219.035156 961.054688 223.359375 956.742188 C 245.570312 934.230469 268.085938 912.332031 294.011719 893.824219 C 303.578125 887.035156 311.910156 879.015625 319.003906 869.460938 C 332.269531 851.566406 331.035156 831.835938 314.996094 815.789062 C 311.605469 812.394531 308.210938 809.308594 304.511719 806.222656 C 297.722656 800.046875 290.632812 794.191406 286 786.476562 C 281.996094 780.300781 279.214844 773.835938 280.757812 766.425781 C 281.996094 760.25 285.386719 758.402344 291.550781 760.875 C 296.792969 763.03125 300.492188 766.730469 303.886719 771.054688 C 307.890625 775.992188 310.367188 781.84375 313.132812 787.40625 C 321.464844 804.371094 329.796875 821.640625 338.125 838.605469 C 342.757812 848.171875 350.460938 852.789062 361.269531 851.871094 C 366.511719 851.257812 371.449219 850.023438 376.386719 847.867188 C 385.328125 844.167969 393.660156 838.621094 401.683594 833.058594 C 409.707031 827.496094 412.796875 820.097656 412.796875 810.851562 C 412.492188 795.125 406.316406 782.164062 395.523438 771.054688 C 388.125 763.65625 380.40625 756.871094 373.3125 749.765625 C 363.742188 740.519531 355.414062 730.328125 349.558594 717.992188 C 346.164062 710.597656 343.703125 702.574219 344.621094 694.242188 C 345.554688 685.609375 349.558594 683.453125 357.582031 686.847656 C 367.152344 690.851562 374.550781 697.636719 381.03125 705.355469 C 391.210938 717.074219 397.066406 730.953125 402.628906 745.148438 C 406.636719 755.632812 410.027344 766.4375 415.898438 776.296875 C 419.597656 782.152344 424.226562 786.171875 431.320312 786.476562 C 433.78125 786.476562 434.410156 788.019531 435.019531 789.867188 C 437.800781 799.742188 440.875 809.613281 443.046875 819.488281 C 450.136719 851.871094 454.15625 885.1875 461.863281 917.570312 C 466.492188 937.625 467.71875 958.59375 470.804688 978.949219 C 476.355469 1014.113281 485.921875 1048.65625 489.011719 1084.433594 C 491.792969 1116.511719 501.039062 1147.660156 502.582031 1180.058594 C 503.515625 1197.328125 506.589844 1214.289062 508.132812 1231.5625 C 509.675781 1247.289062 509.675781 1263.027344 511.527344 1278.449219 C 516.15625 1318.855469 516.769531 1359.570312 518.621094 1399.976562 C 518.925781 1407.375 518.621094 1414.480469 518.621094 1421.878906 C 518.3125 1432.667969 524.167969 1439.148438 533.125 1443.472656 C 542.082031 1447.796875 548.855469 1444.40625 550.398438 1434.53125 C 551.328125 1428.050781 552.246094 1421.894531 553.484375 1415.414062 C 567.058594 1341.382812 592.664062 1271.675781 626.902344 1205.042969 C 636.152344 1186.84375 647.265625 1169.265625 658.683594 1152.300781 C 660.53125 1149.523438 662.078125 1147.671875 665.46875 1150.757812 C 667.929688 1153.21875 671.644531 1153.539062 675.34375 1153.847656 C 683.367188 1154.152344 689.851562 1150.757812 696.011719 1146.449219 C 705.257812 1139.96875 712.671875 1131.640625 719.765625 1123.003906 C 733.949219 1106.652344 747.21875 1089.6875 763.574219 1075.199219 C 771.90625 1067.800781 780.542969 1061.320312 791.332031 1058.234375 C 799.664062 1055.773438 806.453125 1057.625 810.152344 1063.171875 C 813.851562 1068.71875 813.238281 1075.503906 808.300781 1082.609375 C 805.214844 1086.617188 801.820312 1089.703125 797.816406 1092.789062 C 787.328125 1100.1875 776.84375 1107.597656 766.34375 1115.300781 C 751.53125 1126.089844 736.71875 1136.894531 724.6875 1150.773438 C 713.578125 1163.414062 711.113281 1177.304688 716.664062 1193.03125 C 720.988281 1205.058594 726.539062 1216.167969 733.324219 1226.652344 C 738.261719 1234.050781 743.8125 1240.53125 750.90625 1245.773438 C 764.785156 1255.949219 776.507812 1255.019531 788.539062 1242.683594 C 792.542969 1238.679688 795.632812 1234.050781 798.71875 1229.417969 C 802.722656 1222.941406 806.4375 1216.460938 810.136719 1209.980469 C 817.855469 1196.410156 825.253906 1182.53125 834.824219 1169.878906 C 839.148438 1164.332031 843.765625 1158.769531 850.246094 1155.375 C 857.035156 1151.984375 860.734375 1153.832031 861.664062 1161.550781 C 861.972656 1163.398438 861.664062 1164.941406 861.664062 1166.792969 C 860.734375 1174.816406 857.339844 1181.90625 853.335938 1188.691406 C 845.003906 1203.195312 833.890625 1215.835938 823.40625 1228.792969 C 815.6875 1238.039062 807.675781 1246.996094 802.738281 1258.410156 C 793.488281 1279.699219 811.375 1306.523438 834.515625 1306.523438 C 843.152344 1306.523438 849.941406 1302.199219 855.808594 1296.652344 C 864.753906 1288.015625 871.234375 1277.53125 878.019531 1267.03125 C 886.65625 1253.460938 894.679688 1239.585938 904.554688 1226.929688 C 909.1875 1221.078125 913.804688 1215.515625 920.285156 1212.121094 C 922.746094 1210.882812 925.835938 1209.035156 928.617188 1211.191406 C 931.078125 1213.34375 931.398438 1216.433594 931.078125 1219.214844 C 930.464844 1225.386719 928.296875 1231.546875 925.527344 1237.109375 C 919.355469 1249.75 911.34375 1261.164062 903.625 1272.886719 C 898.6875 1280.285156 893.75 1287.390625 890.355469 1295.398438 C 882.636719 1314.210938 887.574219 1327.785156 906.085938 1336.722656 C 915.652344 1341.355469 925.527344 1344.121094 935.710938 1346.902344 C 954.832031 1352.449219 970.574219 1362.628906 982.300781 1378.675781 C 987.238281 1385.460938 992.175781 1392.554688 997.417969 1399.339844 C 1000.8125 1404.273438 1004.203125 1409.515625 1007.902344 1414.148438 C 1012.535156 1419.695312 1018.390625 1419.082031 1021.785156 1412.605469 C 1023.632812 1409.210938 1024.871094 1405.511719 1026.414062 1402.121094 C 1038.75 1371.585938 1058.191406 1347.835938 1089.039062 1334.570312 C 1093.976562 1332.414062 1098.914062 1329.9375 1103.546875 1327.171875 C 1120.820312 1316.992188 1121.125 1304.964844 1104.785156 1293.550781 C 1097.386719 1288.308594 1089.359375 1283.675781 1081.949219 1278.742188 C 1074.546875 1273.5 1067.441406 1267.628906 1062.824219 1259.621094 C 1058.191406 1251.597656 1059.125 1243.894531 1065.605469 1237.109375 C 1077.332031 1224.46875 1097.996094 1225.082031 1108.804688 1238.957031 C 1113.128906 1244.507812 1115.589844 1251.292969 1117.441406 1257.773438 C 1119.59375 1264.558594 1121.140625 1271.648438 1124.226562 1278.128906 C 1129.777344 1289.851562 1138.734375 1291.089844 1147.0625 1281.214844 C 1154.460938 1272.582031 1158.789062 1262.707031 1161.570312 1251.917969 C 1165.894531 1234.953125 1160.957031 1222.621094 1146.144531 1213.054688 C 1138.425781 1208.117188 1129.789062 1205.03125 1121.460938 1201.636719 C 1106.339844 1195.15625 1092.15625 1187.132812 1080.429688 1175.105469 C 1075.1875 1169.558594 1069.945312 1163.691406 1067.164062 1156.292969 C 1063.769531 1147.351562 1067.46875 1140.871094 1076.730469 1138.398438 C 1079.820312 1137.464844 1082.585938 1137.785156 1085.675781 1138.089844 C 1094.003906 1139.636719 1100.792969 1144.265625 1106.96875 1149.507812 C 1116.214844 1157.226562 1123.933594 1166.164062 1131.960938 1174.800781 C 1139.679688 1183.128906 1147.6875 1191.152344 1158.1875 1196.089844 C 1168.980469 1201.332031 1178.550781 1199.480469 1185.335938 1190.542969 C 1196.753906 1175.425781 1195.515625 1152.609375 1182.554688 1139.039062 C 1178.230469 1134.40625 1172.988281 1130.402344 1167.4375 1127.316406 C 1143.988281 1113.4375 1119.316406 1103.871094 1092.15625 1100.785156 C 1077.96875 1099.242188 1064.394531 1096.152344 1051.738281 1089.0625 C 1044.339844 1085.058594 1037.554688 1079.816406 1033.230469 1072.40625 C 1030.449219 1067.46875 1031.683594 1065.3125 1037.234375 1063.769531 C 1043.410156 1062.226562 1049.265625 1063.769531 1055.441406 1064.699219 C 1083.519531 1069.332031 1109.734375 1079.816406 1134.726562 1093.082031 C 1145.839844 1098.933594 1157.242188 1103.871094 1170.207031 1105.109375 C 1183.777344 1106.347656 1190.871094 1101.714844 1193.347656 1088.449219 C 1197.046875 1069.011719 1192.734375 1050.199219 1183.472656 1032.929688 C 1180.691406 1027.6875 1175.449219 1024.90625 1169.59375 1023.363281 C 1160.652344 1020.898438 1151.082031 1019.355469 1141.832031 1017.8125 C 1126.714844 1015.351562 1111.597656 1012.265625 1097.71875 1005.171875 C 1088.777344 1000.847656 1081.988281 994.0625 1078.902344 984.511719 C 1077.96875 981.730469 1077.050781 978.65625 1079.515625 976.183594 C 1081.976562 974.027344 1084.449219 975.875 1086.914062 976.792969 C 1095.550781 980.1875 1103.269531 985.121094 1111.597656 989.433594 C 1127.023438 997.152344 1142.75 1003.617188 1160.039062 1004.855469 C 1171.152344 1005.464844 1176.394531 1000.847656 1176.394531 989.433594 C 1176.394531 977.101562 1172.390625 965.683594 1166.519531 955.199219 C 1151.097656 925.902344 1126.714844 906.15625 1098.023438 891.347656 C 1055.453125 869.445312 1010.101562 862.050781 962.59375 865.441406 C 934.511719 867.597656 914.472656 882.710938 899.035156 905.238281 C 898.421875 906.171875 897.796875 907.394531 897.492188 908.632812 C 896.253906 914.484375 892.246094 916.65625 887.3125 917.574219 C 877.742188 919.726562 870.039062 915.722656 863.554688 909.550781 C 856.464844 903.375 849.984375 896.285156 843.5 889.804688 C 817.273438 864.203125 786.117188 854.945312 750.027344 860.1875 C 699.738281 867.902344 641.4375 915.097656 629.085938 972.457031 C 626.625 983.566406 623.84375 994.355469 623.234375 1005.773438 C 622.300781 1023.042969 634.023438 1032.300781 650.378906 1027.367188 C 653.773438 1026.433594 657.167969 1024.585938 660.253906 1022.734375 C 666.109375 1019.34375 671.367188 1015.019531 676.609375 1010.402344 C 688.640625 999.917969 700.058594 988.5 713.019531 978.933594 C 721.351562 972.761719 729.679688 967.519531 739.554688 964.753906 C 746.648438 962.597656 753.742188 962.902344 760.527344 965.988281 C 773.492188 972.164062 775.339844 983.886719 764.535156 993.4375 C 757.746094 999.292969 749.722656 1003.3125 741.699219 1007.007812 C 725.035156 1014.40625 708.070312 1021.511719 691.40625 1028.910156 C 679.378906 1034.457031 667.960938 1041.242188 658.085938 1050.199219 C 646.054688 1060.988281 639.574219 1073.949219 640.507812 1090.300781 C 641.117188 1101.410156 643.289062 1111.894531 646.988281 1122.378906 C 647.597656 1124.230469 648.53125 1125.773438 646.375 1127.316406 C 640.199219 1132.25 636.195312 1138.730469 631.5625 1144.890625 C 605.652344 1178.207031 587.753906 1216.140625 570.480469 1254.085938 C 565.238281 1265.503906 559.996094 1276.917969 556.601562 1288.945312 C 555.363281 1292.953125 554.140625 1296.96875 550.746094 1301.28125 C 550.441406 1296.34375 550.132812 1292.339844 550.132812 1288.640625 C 550.132812 1258.71875 550.441406 1229.113281 553.222656 1199.191406 C 555.378906 1176.679688 557.851562 1154.152344 560.316406 1131.640625 C 562.777344 1108.808594 565.558594 1085.988281 568.035156 1063.15625 C 569.882812 1044.957031 571.121094 1026.753906 573.582031 1008.566406 C 576.671875 986.054688 581.605469 964.152344 585.613281 941.628906 C 592.09375 906.460938 595.792969 870.992188 604.429688 836.144531 C 612.148438 804.675781 615.847656 772.292969 623.246094 740.839844 C 630.339844 710.609375 640.214844 681.3125 647 651.082031 C 658.113281 602.039062 673.230469 553.914062 686.804688 505.496094 C 688.042969 501.492188 688.652344 499.324219 693.589844 502.105469 C 700.074219 505.804688 707.164062 505.191406 713.644531 501.492188 C 718.277344 499.03125 722.28125 495.320312 725.675781 491.621094 C 737.09375 479.898438 744.1875 466.019531 749.738281 450.90625 C 754.671875 437.640625 759.304688 424.375 767.636719 412.652344 C 773.8125 404.324219 781.515625 397.84375 791.390625 394.757812 C 803.421875 391.058594 814.53125 395.996094 819.46875 407.398438 C 822.863281 414.796875 822.558594 422.511719 819.773438 430.230469 C 816.382812 440.101562 809.902344 447.804688 802.503906 454.589844 C 793.253906 463.226562 782.753906 470.011719 773.199219 478.339844 C 762.40625 487.90625 752.53125 498.085938 746.664062 511.65625 C 742.03125 522.449219 742.964844 532.945312 749.445312 542.5 C 756.539062 552.675781 765.175781 561.3125 775.675781 567.792969 C 787.703125 575.507812 797.578125 573.035156 805.910156 561.617188 C 812.695312 552.371094 817.9375 541.875 823.488281 532 C 830.886719 519.042969 837.675781 506.09375 846.628906 494.066406 C 851.261719 487.589844 856.503906 482.039062 863.902344 478.648438 C 871.929688 474.949219 879.941406 476.492188 886.421875 482.972656 C 892.59375 489.144531 894.445312 497.15625 891.050781 504.871094 C 887.964844 512.269531 882.414062 518.136719 876.238281 522.769531 C 870.386719 527.09375 864.210938 531.097656 858.339844 535.40625 C 847.546875 543.125 839.828125 553.304688 835.503906 565.941406 C 830.566406 580.75 834.265625 591.542969 846.921875 600.484375 C 853.710938 605.417969 861.109375 608.503906 869.132812 610.96875 C 903.375 622.6875 927.128906 646.132812 942.550781 678.210938 C 946.875 687.457031 950.578125 697.023438 954.582031 706.589844 C 958.585938 715.53125 964.761719 717.703125 973.703125 713.378906 C 981.730469 709.679688 987.890625 704.128906 992.828125 696.71875 C 997.457031 689.628906 1002.078125 682.535156 1006.402344 675.125 C 1015.039062 660.316406 1026.761719 648.59375 1041.269531 639.652344 C 1050.835938 633.800781 1060.085938 627.929688 1069.652344 621.757812 C 1075.507812 618.058594 1080.765625 613.121094 1084.769531 607.574219 C 1094.953125 593.070312 1092.488281 575.191406 1078.914062 564.078125 C 1074.910156 560.992188 1070.890625 558.226562 1066.578125 555.445312 C 1059.179688 550.507812 1051.769531 546.199219 1045.289062 540.023438 C 1039.113281 534.167969 1034.496094 527.691406 1033.867188 519.054688 C 1032.9375 505.789062 1043.117188 498.390625 1055.46875 503.328125 C 1060.40625 505.179688 1064.105469 508.570312 1067.804688 511.964844 C 1073.351562 517.816406 1077.984375 524.296875 1082.308594 531.082031 C 1086.632812 537.867188 1090.640625 544.652344 1095.882812 550.828125 C 1106.0625 562.242188 1117.480469 563.160156 1129.207031 553.609375 C 1131.363281 552.066406 1133.210938 550.214844 1134.753906 548.0625 C 1144.003906 537.578125 1150.179688 525.230469 1153.878906 511.65625 C 1155.117188 506.722656 1156.035156 501.480469 1154.808594 496.238281 C 1151.722656 481.734375 1143.085938 471.25 1131.054688 462.921875 C 1121.488281 456.136719 1110.695312 451.503906 1099.902344 446.886719 C 1084.480469 440.101562 1069.359375 432.386719 1056.398438 421.289062 C 1050.851562 416.660156 1045.914062 411.722656 1042.824219 404.9375 C 1035.105469 388.277344 1047.761719 369.160156 1066.273438 369.464844 C 1074.910156 369.769531 1082.003906 373.789062 1088.789062 378.40625 C 1102.363281 387.652344 1112.851562 400 1122.417969 413.265625 C 1130.445312 424.683594 1138.148438 436.402344 1147.105469 447.195312 C 1164.070312 467.855469 1178.257812 459.222656 1187.214844 442.257812 C 1193.695312 429.617188 1195.851562 416.351562 1195.546875 402.15625 C 1195.238281 389.820312 1189.996094 379.949219 1180.121094 372.859375 C 1173.027344 367.617188 1165.003906 363.609375 1156.671875 360.523438 C 1141.25 354.671875 1125.199219 351.582031 1109.164062 347.882812 C 1082.628906 341.710938 1057.652344 332.15625 1035.746094 315.195312 C 1030.808594 311.1875 1025.871094 306.863281 1022.171875 301.316406 C 1017.234375 293.597656 1018.472656 289.289062 1027.414062 286.507812 C 1031.421875 285.269531 1035.441406 284.660156 1039.75 284.351562 C 1059.5 283.742188 1076.46875 290.832031 1092.808594 300.703125 C 1109.472656 310.882812 1125.507812 321.367188 1143.40625 328.777344 C 1151.125 331.867188 1158.828125 334.632812 1167.160156 334.953125 C 1181.972656 335.882812 1191.21875 327.234375 1190.914062 312.441406 C 1190.914062 301.957031 1188.453125 291.777344 1186.28125 281.597656 C 1184.128906 269.878906 1177.035156 262.480469 1166.535156 257.851562 C 1158.203125 254.457031 1149.566406 251.996094 1140.625 249.519531 C 1119.957031 243.972656 1099.902344 237.492188 1082.628906 223.921875 C 1075.230469 218.066406 1069.054688 210.960938 1065.96875 201.714844 C 1062.574219 191.535156 1067.816406 184.75 1078.304688 184.75 C 1086.941406 184.75 1094.660156 187.53125 1102.363281 191.535156 C 1111.933594 196.777344 1121.488281 202.328125 1131.054688 207.570312 C 1139.082031 212.199219 1147.410156 216.511719 1156.660156 217.746094 C 1169.925781 219.902344 1177.324219 212.8125 1174.558594 199.851562 C 1166.226562 158.832031 1145.867188 124.902344 1111.933594 100.527344 C 1067.148438 68.117188 1016.246094 54.238281 961.339844 54.851562 C 930.800781 55.15625 902.71875 64.722656 878.046875 82.925781 C 861.691406 94.953125 848.425781 109.148438 837.328125 126.417969 C 827.144531 112.238281 814.488281 101.125 799.066406 93.101562 C 779.011719 82.925781 758.039062 74.902344 736.132812 69.660156 C 712.6875 66.878906 688.933594 64.417969 665.179688 69.964844 C 642.660156 75.207031 623.523438 86.625 605.332031 100.195312 C 580.648438 118.703125 560.285156 139.992188 550.410156 170.207031 C 544.238281 188.714844 538.6875 207.527344 539.621094 227.273438 C 540.230469 241.148438 548.257812 248.867188 562.136719 249.171875 C 572.011719 249.480469 580.339844 245.167969 588.046875 239.605469 C 601.3125 230.359375 612.414062 218.945312 623.832031 207.527344 C 636.167969 195.195312 648.515625 182.847656 662.394531 172.054688 C 671.339844 165.269531 680.601562 159.097656 691.699219 156.328125 C 712.058594 151.085938 729.960938 162.808594 733.660156 183.164062 C 736.121094 196.429688 730.265625 205.066406 716.996094 207.222656 C 709.90625 208.460938 702.8125 207.832031 695.703125 207.832031 C 684.59375 207.832031 673.1875 207.527344 662.382812 210.613281 C 622.898438 221.722656 592.039062 244.847656 566.738281 276.621094 C 562.414062 281.863281 559.648438 288.34375 559.019531 295.128906 C 556.558594 316.417969 560.871094 336.453125 569.507812 355.589844 C 575.683594 369.160156 583.691406 381.1875 595.417969 390.449219 C 605.597656 398.472656 616.710938 398.777344 627.503906 391.378906 C 632.746094 387.988281 637.070312 383.664062 641.074219 379.046875 C 649.710938 369.171875 656.5 358.382812 663.914062 347.578125 C 672.550781 334.621094 681.1875 321.980469 692.605469 310.871094 C 700.628906 302.847656 709.265625 295.753906 720.363281 292.667969 C 739.488281 287.121094 756.453125 300.996094 753.992188 320.421875 C 753.058594 329.058594 748.75 336.148438 742.878906 342.324219 C 734.855469 350.652344 724.980469 356.199219 715.121094 361.761719 C 697.539062 371.941406 678.710938 380.269531 662.675781 392.910156 C 645.402344 406.175781 639.839844 424.988281 647.25 445.34375 C 651.578125 457.371094 658.042969 468.484375 666.375 478.035156 C 670.378906 482.972656 671.3125 486.363281 668.835938 492.539062 C 662.046875 509.503906 656.5 526.773438 650.324219 544.042969 C 623.789062 620.535156 602.203125 698.261719 585.542969 777.535156 C 577.210938 817.332031 571.039062 857.726562 561.789062 897.519531 C 545.753906 965.378906 536.183594 1034.164062 531.246094 1103.566406 C 530.636719 1111.894531 529.703125 1119.917969 528.785156 1128.246094 C 525.390625 1116.21875 520.148438 1103.886719 519.21875 1090.3125 Z M 830.832031 223.574219 C 784.5625 223.878906 740.433594 234.988281 697.25 250.714844 C 661.464844 263.675781 630.921875 284.03125 601.925781 308.089844 C 599.464844 310.242188 597.601562 312.71875 599.769531 315.804688 C 602.230469 319.199219 605.320312 317.65625 608.101562 315.804688 C 613.957031 311.480469 619.519531 307.171875 625.066406 302.847656 C 653.148438 279.707031 685.539062 265.21875 719.472656 253.804688 C 755.5625 241.46875 792.585938 234.683594 830.539062 233.753906 C 847.8125 233.445312 865.085938 232.820312 882.375 232.820312 C 889.773438 232.820312 894.402344 235.28125 897.796875 243 C 914.457031 284.324219 926.792969 326.902344 937.28125 370.078125 C 946.847656 410.179688 954.554688 450.894531 959.183594 491.914062 C 961.035156 509.183594 962.578125 526.148438 963.511719 543.417969 C 963.816406 548.046875 962.898438 550.203125 957.65625 549.894531 C 933.289062 548.351562 909.839844 554.222656 887.003906 561.3125 C 885.765625 561.617188 884.542969 562.242188 883.304688 563.160156 C 881.761719 564.398438 880.84375 566.25 881.761719 568.097656 C 882.375 569.949219 883.917969 570.878906 885.765625 570.878906 C 887.921875 570.878906 890.09375 570.574219 892.554688 569.640625 C 911.371094 563.789062 930.492188 558.851562 950.242188 558.226562 C 964.121094 557.613281 964.121094 557.292969 963.816406 570.863281 C 963.203125 605.40625 962.578125 640.265625 961.660156 674.820312 C 961.660156 680.992188 960.730469 687.152344 959.199219 693.632812 C 958.265625 691.78125 957.347656 689.933594 956.738281 687.777344 C 947.488281 663.722656 933.289062 643.058594 913.539062 626.402344 C 900.898438 615.613281 886.699219 608.507812 871.273438 603.265625 C 864.183594 600.800781 857.089844 598.023438 851.21875 593.085938 C 843.820312 586.910156 841.972656 581.363281 844.738281 572.421875 C 848.132812 561.632812 854.308594 552.675781 863.554688 546.199219 C 871.273438 540.648438 879.910156 536.019531 886.699219 529.234375 C 894.722656 521.835938 901.511719 513.507812 902.734375 501.785156 C 903.972656 490.0625 899.035156 481.121094 889.773438 474.335938 C 880.828125 467.855469 870.953125 466.621094 860.46875 471.25 C 853.683594 474.335938 848.4375 478.96875 843.808594 484.515625 C 839.175781 489.757812 835.171875 495.625 831.777344 501.480469 C 822.527344 516.898438 813.570312 532.320312 804.628906 547.742188 C 802.78125 550.828125 800.929688 553.59375 799.082031 556.683594 C 792.90625 565.621094 788.289062 566.554688 779.636719 560.378906 C 772.542969 555.445312 766.371094 549.269531 760.820312 542.484375 C 753.101562 533.238281 752.488281 523.671875 758.359375 513.492188 C 765.453125 501.464844 775.328125 491.898438 786.117188 483.265625 C 795.367188 475.867188 805.5625 468.761719 813.878906 460.125 C 825.601562 447.792969 833.628906 434.222656 832.082031 416.324219 C 829.925781 393.8125 808.328125 380.242188 787.355469 387.945312 C 774.714844 392.574219 765.144531 401.210938 757.734375 412.625 C 750.640625 423.417969 746.316406 435.457031 742.003906 447.167969 C 736.453125 462.28125 729.667969 476.785156 717.945312 488.1875 C 716.09375 489.730469 714.246094 491.578125 712.394531 492.816406 C 705.914062 497.445312 700.671875 497.753906 694.816406 492.816406 C 677.234375 478.632812 663.96875 461.042969 657.179688 439.449219 C 652.855469 425.878906 656.875 413.851562 667.667969 404.589844 C 680.003906 393.800781 694.816406 386.695312 709 378.988281 C 722.878906 371.273438 737.386719 364.488281 749.109375 353.695312 C 758.359375 345.0625 765.144531 334.578125 765.773438 321.617188 C 767.316406 295.394531 745.105469 277.511719 719.808594 284.296875 C 710.238281 286.757812 702.226562 292.015625 694.816406 298.175781 C 682.480469 308.351562 672.910156 321.007812 663.664062 333.953125 C 654.71875 346.910156 646.390625 360.789062 636.207031 372.816406 C 632.816406 376.515625 629.421875 380.214844 625.097656 383.300781 C 616.765625 389.15625 610.589844 388.847656 602.578125 382.6875 C 595.488281 376.835938 589.9375 369.730469 585.308594 361.71875 C 575.433594 344.757812 570.496094 326.554688 569.882812 307.128906 C 569.269531 296.339844 572.96875 286.773438 580.0625 278.75 C 601.660156 254.066406 627.265625 234.949219 658.113281 223.53125 C 668.597656 219.527344 679.710938 218.902344 691.128906 218.902344 C 699.460938 218.902344 707.792969 218.902344 716.121094 218.597656 C 738.027344 217.050781 749.445312 202.5625 744.8125 180.664062 C 739.570312 155.675781 716.121094 141.1875 690.824219 147.652344 C 677.554688 151.046875 666.761719 158.441406 656.277344 166.464844 C 637.765625 180.96875 622.035156 198.238281 605.375 214.269531 C 597.976562 221.667969 590.257812 228.773438 581.007812 234.015625 C 575.460938 237.410156 569.589844 240.191406 562.804688 239.871094 C 556.015625 239.566406 552.625 236.785156 551.386719 229.996094 C 549.535156 217.96875 551.996094 206.554688 554.78125 194.832031 C 568.964844 134.375 610.617188 100.445312 666.457031 81.019531 C 686.511719 73.929688 707.484375 76.695312 727.847656 81.019531 C 753.144531 86.261719 777.511719 95.203125 800.347656 107.550781 C 814.851562 115.269531 825.949219 126.363281 834.585938 140.5625 C 838.59375 147.039062 844.765625 152.28125 849.398438 158.761719 C 862.359375 176.964844 874.695312 195.777344 885.808594 215.523438 C 887.351562 217.984375 888.589844 220.765625 890.441406 224.15625 C 868.839844 222.308594 849.71875 223.226562 830.902344 223.546875 Z M 217.519531 932.089844 C 219.0625 912.34375 216.585938 892.917969 213.820312 873.171875 C 210.121094 847.269531 210.121094 821.042969 212.886719 794.832031 C 220.605469 725.433594 240.648438 659.121094 262.550781 593.417969 C 265.945312 582.933594 270.882812 576.453125 281.371094 571.824219 C 302.96875 562.257812 323.941406 553.011719 348 551.773438 C 369.292969 550.535156 390.570312 551.160156 411.558594 554.554688 C 441.792969 559.183594 471.402344 565.96875 499.175781 579.542969 C 506.269531 582.933594 513.363281 586.632812 519.84375 591.875 C 522.625 594.03125 525.699219 596.507812 528.480469 593.113281 C 531.566406 589.109375 527.867188 586.632812 525.085938 584.785156 C 511.511719 574.300781 496.089844 567.515625 480.359375 561.644531 C 453.210938 551.46875 425.132812 546.226562 396.441406 543.136719 C 371.144531 540.359375 345.84375 540.984375 321.160156 546.53125 C 306.042969 549.925781 292.46875 557.015625 278.585938 563.496094 C 277.042969 564.105469 275.5 565.039062 273.652344 565.652344 C 273.652344 564.414062 273.34375 563.800781 273.652344 563.191406 C 285.070312 529.261719 297.40625 495.945312 315.914062 465.105469 C 320.242188 458.011719 325.789062 452.144531 332.578125 448.445312 C 361.878906 432.09375 392.117188 416.976562 425.132812 408.96875 C 454.4375 401.570312 484.058594 400.640625 512.445312 412.972656 C 546.378906 428.089844 571.371094 452.449219 581.550781 489.464844 C 584.332031 499.335938 584.640625 509.515625 584.332031 519.695312 C 583.722656 531.109375 577.546875 535.117188 566.753906 531.109375 C 560.578125 528.648438 555.335938 525.257812 550.09375 521.238281 C 527.574219 504.886719 505.367188 488.546875 482.835938 472.195312 C 472.347656 464.476562 461.238281 458.011719 447.664062 457.386719 C 424.519531 456.773438 405.703125 465.714844 392.433594 484.222656 C 383.796875 496.558594 387.5 511.671875 400.152344 520.304688 C 408.484375 526.160156 418.359375 528.023438 428.234375 528.941406 C 448.289062 530.789062 468.039062 532.640625 487.464844 537.882812 C 523.875 548.0625 551.636719 569.65625 574.152344 599.257812 C 576.933594 602.957031 577.546875 606.351562 575.695312 610.371094 C 567.671875 625.789062 559.660156 641.210938 548.855469 655.085938 C 547.617188 656.632812 546.074219 658.175781 544.847656 659.71875 C 534.972656 669.589844 530.664062 670.203125 518.9375 663.109375 C 505.671875 655.394531 494.574219 645.214844 486.242188 631.964844 C 478.21875 619.003906 470.511719 606.058594 459.707031 594.949219 C 443.046875 577.679688 423.296875 568.113281 398.929688 570.265625 C 380.726562 571.8125 371.476562 586.925781 378.261719 604.195312 C 383.199219 616.222656 392.449219 623.632812 402.949219 630.101562 C 412.199219 635.953125 422.699219 639.972656 432.574219 644.601562 C 456.019531 656.019531 473.292969 673.902344 485.628906 697.039062 C 491.804688 708.761719 492.109375 720.175781 485.628906 731.898438 C 475.144531 750.710938 460.332031 764.910156 440.902344 774.460938 C 430.722656 779.398438 427.636719 778.160156 422.390625 767.980469 C 417.761719 758.734375 414.671875 748.863281 410.972656 739.296875 C 404.1875 721.71875 395.855469 705.0625 381.671875 692.101562 C 374.273438 685.316406 366.554688 679.144531 356.679688 676.683594 C 346.5 674.222656 338.167969 679.144531 335.707031 689.320312 C 332.925781 701.042969 336.011719 711.835938 340.644531 722.332031 C 347.734375 738.058594 359.460938 750.710938 371.796875 762.433594 C 378.890625 769.21875 386.609375 775.394531 392.769531 782.792969 C 400.488281 792.359375 404.1875 803.453125 402.644531 815.800781 C 402.335938 818.582031 401.40625 821.042969 399.25 822.585938 C 389.070312 830.609375 378.277344 837.703125 365.621094 841.09375 C 355.136719 843.875 351.117188 841.707031 346.179688 832.152344 C 337.234375 813.953125 328.597656 795.75 319.644531 777.5625 C 315.636719 769.234375 310.394531 761.53125 302.675781 755.96875 C 300.824219 754.425781 298.671875 753.1875 296.5 752.269531 C 283.234375 746.097656 271.507812 752.882812 270.589844 767.691406 C 269.980469 776.9375 273.050781 785.265625 277.988281 792.675781 C 284.777344 802.855469 294.34375 810.574219 303.59375 818.582031 C 310.6875 824.757812 315.929688 832.152344 317.777344 841.71875 C 318.710938 847.269531 318.085938 852.203125 315.316406 856.835938 C 309.460938 867.015625 302.050781 875.953125 292.480469 882.433594 C 265.945312 901.246094 242.191406 923.148438 219.367188 946.285156 C 218.757812 946.898438 218.4375 947.21875 216.90625 948.441406 C 216.90625 942.265625 217.214844 937.332031 217.519531 932.089844 Z M 971.199219 668.367188 C 971.8125 624.566406 973.664062 580.460938 972.746094 536.660156 C 972.132812 515.691406 969.65625 495.011719 966.570312 474.351562 C 965.957031 469.71875 967.5 468.175781 971.8125 467.871094 C 1015.011719 463.546875 1056.957031 466.9375 1097.066406 485.445312 C 1098.914062 486.378906 1100.457031 486.988281 1102.308594 487.601562 C 1105.703125 488.839844 1109.09375 489.757812 1110.640625 485.753906 C 1112.183594 482.054688 1109.402344 479.898438 1106.3125 478.660156 C 1096.746094 474.335938 1086.871094 469.71875 1076.691406 466.632812 C 1051.699219 458.609375 1025.789062 456.453125 999.878906 456.761719 C 989.390625 456.761719 978.90625 457.066406 968.726562 459.222656 C 965.636719 459.832031 964.398438 458.917969 964.09375 455.828125 C 959.464844 424.683594 952.980469 393.828125 945.582031 362.984375 C 944.652344 359.59375 945.582031 358.660156 948.976562 358.355469 C 959.464844 357.421875 969.949219 356.8125 980.128906 356.503906 L 998.945312 356.503906 C 1001.726562 356.503906 1004.191406 355.269531 1004.496094 352.179688 C 1004.800781 348.484375 1002.035156 347.550781 999.253906 347.246094 L 997.097656 347.246094 C 980.128906 347.550781 962.855469 347.550781 945.890625 350.027344 C 942.191406 350.636719 942.191406 348.175781 941.5625 346.019531 C 934.472656 318.265625 926.140625 290.804688 916.570312 263.660156 C 905.152344 231.277344 889.425781 201.046875 869.675781 172.972656 C 867.214844 169.273438 867.214844 167.121094 870.289062 163.726562 C 890.953125 142.757812 914.707031 126.40625 943.09375 116.839844 C 953.582031 113.445312 964.691406 112.835938 975.484375 111.902344 L 980.117188 111.902344 C 983.507812 111.597656 986.597656 110.664062 986.597656 106.660156 C 986.289062 102.65625 983.203125 102.335938 980.117188 102.335938 C 957.28125 101.722656 935.390625 106.964844 915.335938 117.757812 C 896.210938 128.242188 878.925781 141.199219 864.125 157.234375 C 861.664062 160.015625 860.425781 159.695312 858.578125 156.925781 C 855.488281 152.296875 852.402344 147.679688 848.398438 143.660156 C 844.390625 139.335938 845.003906 135.640625 848.089844 131.328125 C 862.597656 109.734375 881.109375 93.074219 904.234375 81.671875 C 929.535156 69.339844 956.683594 65.640625 984.761719 68.101562 C 1021.476562 71.496094 1056.328125 81.367188 1088.414062 99.570312 C 1127.59375 121.777344 1152.585938 155.089844 1164.003906 198.585938 C 1164.933594 202.589844 1167.394531 207.222656 1164.003906 210.308594 C 1160.609375 213.089844 1155.976562 210.613281 1151.972656 209.375 C 1140.859375 205.371094 1131 198.890625 1121.125 193.023438 C 1110.640625 186.851562 1099.832031 180.996094 1087.800781 178.523438 C 1082.867188 177.589844 1077.929688 177.285156 1073.296875 177.910156 C 1060.335938 179.453125 1052.628906 192.71875 1056.941406 206.902344 C 1061.265625 220.472656 1070.515625 230.34375 1081.933594 238.050781 C 1097.96875 249.160156 1115.867188 255.320312 1134.683594 260.5625 C 1143.933594 263.023438 1153.503906 265.496094 1162.765625 269.195312 C 1170.789062 272.589844 1176.03125 277.832031 1177.578125 286.773438 C 1179.121094 295.40625 1180.96875 304.347656 1181.902344 312.996094 C 1182.832031 323.175781 1178.507812 327.804688 1168.632812 327.5 C 1161.234375 327.195312 1154.449219 324.71875 1147.660156 321.644531 C 1132.238281 314.859375 1118.039062 306.226562 1103.851562 297.285156 C 1088.734375 287.71875 1073.003906 279.707031 1054.800781 277.539062 C 1045.230469 276.300781 1035.675781 276.300781 1026.414062 279.082031 C 1010.058594 284.019531 1005.746094 296.046875 1015.621094 309.925781 C 1023.339844 320.714844 1033.828125 328.125 1044.621094 334.910156 C 1066.828125 348.789062 1091.210938 356.503906 1116.8125 361.746094 C 1128.84375 364.210938 1140.566406 366.988281 1151.984375 371.316406 C 1155.992188 372.859375 1160.011719 374.402344 1164.015625 376.558594 C 1184.070312 386.429688 1189.007812 396.609375 1185.613281 418.8125 C 1184.070312 428.6875 1181.289062 438.253906 1175.128906 446.261719 C 1169.886719 453.046875 1165.878906 453.660156 1159.703125 447.5 C 1151.375 439.476562 1144.894531 429.605469 1138.414062 419.746094 C 1127.621094 404.019531 1116.203125 388.90625 1101.085938 376.875 C 1092.140625 369.785156 1082.574219 363.609375 1070.847656 362.375 C 1056.34375 360.523438 1045.246094 366.378906 1037.21875 378.101562 C 1029.195312 389.820312 1029.195312 401.851562 1035.984375 414.183594 C 1041.839844 424.972656 1051.40625 432.078125 1060.976562 438.863281 C 1073.003906 447.5 1086.578125 453.675781 1100.152344 459.832031 C 1107.871094 463.226562 1115.574219 466.925781 1122.988281 471.554688 C 1128.84375 474.949219 1133.78125 479.273438 1138.105469 484.515625 C 1145.824219 494.386719 1148.285156 504.871094 1143.65625 516.59375 C 1139.332031 527.703125 1134.40625 538.496094 1125.449219 546.824219 C 1116.8125 555.152344 1110.332031 554.847656 1103.238281 545.28125 C 1098.609375 539.425781 1094.601562 532.945312 1090.597656 526.773438 C 1085.355469 519.054688 1080.113281 511.351562 1073.324219 505.179688 C 1066.84375 499.003906 1059.445312 494.386719 1050.183594 494.386719 C 1034.453125 494.082031 1022.730469 506.722656 1024.578125 522.460938 C 1025.816406 534.183594 1032.296875 543.125 1040.613281 550.84375 C 1046.46875 556.085938 1053.257812 560.410156 1059.738281 564.71875 C 1064.675781 567.804688 1069.304688 570.894531 1073.921875 574.589844 C 1082.867188 581.988281 1084.410156 592.167969 1078.554688 602.347656 C 1075.160156 608.199219 1070.222656 612.523438 1064.675781 616.222656 C 1056.648438 621.160156 1048.945312 626.402344 1040.613281 631.03125 C 1021.492188 642.140625 1006.679688 657.5625 995.886719 676.683594 C 991.882812 683.773438 987.863281 690.558594 982.925781 696.734375 C 979.835938 700.433594 976.445312 703.519531 971.507812 705.675781 C 968.726562 693.035156 970.894531 680.6875 971.199219 668.351562 Z M 1007.304688 1397.53125 C 1002.675781 1391.050781 998.058594 1384.570312 993.425781 1377.785156 C 978.917969 1357.125 959.492188 1343.550781 935.109375 1337.070312 C 926.78125 1334.917969 918.449219 1332.441406 910.425781 1328.4375 C 896.238281 1321.652344 893.152344 1313.015625 899.632812 1298.820312 C 903.957031 1289.253906 910.425781 1280.921875 915.988281 1271.984375 C 923.707031 1260.261719 931.410156 1248.84375 936.65625 1235.578125 C 939.117188 1229.40625 940.660156 1223.246094 940.355469 1216.765625 C 939.742188 1203.808594 929.867188 1197.328125 917.835938 1202.261719 C 911.664062 1204.722656 906.726562 1209.355469 902.109375 1213.984375 C 895.933594 1220.769531 890.691406 1228.167969 885.753906 1235.578125 C 876.808594 1249.152344 868.171875 1262.722656 859.21875 1276.292969 C 855.210938 1282.46875 850.582031 1288.015625 844.710938 1292.644531 C 838.855469 1297.582031 832.375 1298.195312 825.894531 1294.496094 C 822.195312 1292.339844 818.800781 1289.863281 816.019531 1286.777344 C 808.621094 1278.753906 807.382812 1270.121094 812.320312 1260.246094 C 816.953125 1250.679688 824.042969 1242.976562 830.527344 1234.953125 C 842.554688 1220.144531 854.890625 1205.960938 863.847656 1188.996094 C 869.089844 1179.125 873.097656 1168.945312 870.636719 1157.53125 C 868.171875 1146.113281 858.910156 1141.179688 848.117188 1145.503906 C 841.332031 1148.285156 836.394531 1152.902344 831.761719 1158.144531 C 818.496094 1173.257812 809.246094 1191.152344 799.371094 1208.730469 C 794.433594 1217.363281 789.5 1226.304688 782.710938 1234.023438 C 773.144531 1245.132812 765.4375 1246.050781 754.632812 1236.484375 C 737.96875 1221.675781 728.402344 1202.554688 723.480469 1181.574219 C 721.324219 1172.324219 725.632812 1164.609375 731.503906 1157.824219 C 744.144531 1143.320312 759.890625 1132.222656 775.3125 1120.808594 C 786.730469 1112.480469 798.761719 1105.386719 809.246094 1095.820312 C 814.488281 1090.882812 819.121094 1085.335938 820.972656 1078.246094 C 826.214844 1059.125 809.246094 1043.703125 788.886719 1048.945312 C 777.46875 1052.035156 767.914062 1058.511719 759.261719 1065.910156 C 741.363281 1080.71875 727.179688 1099.226562 711.753906 1116.804688 C 704.96875 1124.519531 698.488281 1131.917969 690.460938 1138.09375 C 688.917969 1139.328125 687.375 1140.246094 685.832031 1141.179688 C 675.957031 1147.03125 669.476562 1145.808594 663.3125 1135.9375 C 654.066406 1120.820312 649.433594 1104.46875 650.046875 1086.585938 C 650.351562 1076.101562 655.59375 1067.773438 663.007812 1060.683594 C 672.578125 1051.4375 684.300781 1044.648438 696.332031 1039.394531 C 710.515625 1032.914062 725.023438 1026.753906 739.527344 1020.582031 C 746.925781 1017.1875 754.339844 1013.792969 761.433594 1009.46875 C 764.214844 1007.925781 766.675781 1006.078125 769.152344 1004.226562 C 777.175781 997.441406 783.65625 989.726562 781.179688 978.324219 C 778.398438 965.988281 769.761719 959.507812 758.34375 956.421875 C 748.777344 953.960938 739.835938 955.492188 730.585938 959.203125 C 718.863281 963.835938 708.679688 970.925781 699.433594 978.949219 C 688.945312 987.890625 678.765625 997.152344 668.28125 1006.089844 C 663.34375 1010.414062 658.097656 1014.421875 651.925781 1017.507812 C 648.835938 1019.050781 645.441406 1020.289062 642.050781 1020.289062 C 636.804688 1020.289062 633.414062 1017.507812 633.105469 1011.960938 C 632.800781 1006.71875 633.414062 1001.476562 634.039062 996.234375 C 643.605469 934.535156 679.085938 894.140625 737.386719 874.703125 C 775.328125 862.0625 809.582031 871.308594 838.273438 899.691406 C 843.515625 904.933594 848.757812 910.175781 854.308594 915.417969 C 860.484375 921.269531 867.574219 925.902344 876.519531 927.75 C 878.0625 928.058594 879.300781 928.363281 880.21875 929.601562 C 888.855469 940.710938 896.878906 951.804688 904.582031 964.460938 C 896.558594 963.527344 889.160156 962.609375 882.066406 961.679688 C 860.164062 959.21875 838.5625 962.609375 817.589844 968.160156 C 814.503906 968.769531 812.347656 970.621094 813.265625 974.011719 C 814.199219 977.710938 817.273438 978.015625 820.359375 977.40625 C 831.152344 975.25 841.957031 972.164062 853.054688 971.230469 C 871.871094 969.382812 890.382812 970.621094 908.589844 975.238281 C 911.984375 976.167969 913.527344 978.628906 915.375 981.410156 C 930.1875 1007.316406 942.21875 1034.457031 953.011719 1062.53125 C 964.429688 1092.761719 975.527344 1123.296875 986.027344 1153.832031 C 987.570312 1158.15625 986.636719 1159.378906 982.328125 1160.3125 C 967.515625 1163.703125 956.097656 1173.578125 944.066406 1182.210938 C 941.605469 1184.0625 940.980469 1186.84375 942.828125 1188.996094 C 944.984375 1191.460938 947.765625 1190.847656 949.921875 1189.304688 C 955.472656 1185.605469 960.714844 1181.585938 965.957031 1177.886719 C 972.132812 1173.5625 978.917969 1170.171875 986.320312 1168.320312 C 989.101562 1167.710938 990.324219 1168.015625 991.257812 1170.78125 C 997.429688 1190.222656 1002.367188 1209.648438 1006.066406 1229.390625 C 1006.679688 1232.171875 1006.066406 1233.398438 1002.980469 1234.023438 C 989.710938 1236.804688 977.375 1242.65625 966.890625 1250.679688 C 958.558594 1256.855469 950.855469 1263.945312 942.828125 1270.730469 L 942.21875 1271.34375 C 940.0625 1273.5 938.519531 1275.972656 940.980469 1278.742188 C 943.441406 1281.523438 946.527344 1280.589844 949.003906 1278.433594 C 955.792969 1272.582031 962.273438 1266.714844 969.058594 1260.859375 C 978.933594 1252.53125 990.03125 1246.675781 1002.382812 1242.964844 C 1008.558594 1241.113281 1008.558594 1241.417969 1009.476562 1247.898438 C 1013.800781 1282.757812 1014.414062 1317.605469 1013.175781 1352.769531 C 1012.5625 1368.191406 1011.9375 1383.613281 1011.628906 1399.660156 C 1008.542969 1399.964844 1007.929688 1398.421875 1007.304688 1397.503906 Z M 201.484375 955.839844 C 180.511719 925.304688 157.675781 896.617188 124.976562 877.804688 C 120.347656 875.34375 115.730469 872.867188 111.402344 870.085938 C 106.160156 866.695312 105.550781 862.996094 108.621094 857.128906 C 113.867188 848.1875 121.890625 843.25 131.140625 839.230469 C 137.621094 836.449219 144.40625 833.683594 149.957031 829.359375 C 157.980469 823.503906 163.222656 816.09375 162.292969 805.304688 C 160.75 788.949219 143.476562 778.160156 127.121094 783.097656 C 118.175781 785.878906 110.457031 791.425781 103.671875 797.601562 C 97.816406 803.148438 92.558594 809.015625 86.703125 814.871094 C 85.773438 815.800781 85.160156 816.71875 84.242188 817.652344 C 75.605469 826.285156 70.976562 825.675781 65.121094 814.871094 C 57.722656 800.367188 54.007812 785.253906 54.632812 768.914062 C 55.246094 760.277344 57.09375 757.5 65.746094 755.648438 C 90.429688 750.710938 113.867188 742.382812 134.851562 728.507812 C 141.027344 724.5 146.882812 720.175781 152.125 714.933594 C 159.84375 706.605469 163.851562 697.359375 159.523438 686.25 C 154.894531 674.527344 146.257812 667.742188 133.921875 665.585938 C 124.351562 664.042969 115.714844 666.199219 107.386719 671.132812 C 94.117188 679.15625 83.019531 689.640625 72.210938 700.75 C 65.425781 707.84375 58.945312 715.253906 51.546875 721.414062 C 49.390625 723.265625 47.21875 724.808594 44.757812 726.351562 C 41.367188 728.199219 38.582031 727.589844 35.816406 724.5 C 24.09375 710.929688 24.09375 685.636719 37.054688 673.304688 C 61.113281 650.164062 89.804688 636.289062 122.195312 628.890625 C 131.765625 626.734375 141.320312 625.804688 150.886719 622.71875 C 168.46875 617.167969 174.03125 604.210938 166.003906 587.550781 C 157.0625 569.347656 139.164062 563.191406 120.957031 572.128906 C 109.847656 577.679688 100.292969 586.007812 91.03125 593.726562 C 81.460938 601.75 72.210938 610.382812 61.40625 616.863281 C 52.769531 622.105469 43.828125 626.109375 33.953125 627.972656 C 22.839844 630.128906 15.746094 625.511719 14.507812 614.097656 C 12.660156 600.21875 14.203125 586.339844 18.835938 572.769531 C 21.296875 565.371094 26.234375 561.046875 34.566406 560.128906 C 45.984375 559.199219 57.707031 559.519531 68.804688 556.433594 C 87.929688 551.191406 105.519531 542.859375 121.25 531.445312 C 132.042969 523.726562 134.824219 512.9375 130.820312 502.148438 C 125.882812 489.8125 115.089844 484.875 100.277344 488.882812 C 90.402344 491.664062 81.15625 496.597656 72.519531 501.839844 C 65.425781 506.164062 58.011719 510.167969 50.613281 514.175781 C 46.914062 516.328125 42.894531 517.875 38.277344 518.804688 C 29.945312 520.347656 27.164062 517.566406 29.335938 509.238281 C 31.183594 502.757812 34.578125 496.597656 38.277344 491.035156 C 57.09375 462.65625 82.394531 441.6875 112.933594 426.574219 C 138.84375 413.933594 165.378906 403.742188 194.378906 400.972656 C 230.789062 397.582031 265.027344 403.128906 294.957031 425.65625 C 302.050781 430.898438 308.226562 437.378906 313.160156 445.09375 C 314.398438 447.25 314.707031 448.792969 313.160156 451.269531 C 292.1875 481.804688 277.988281 515.730469 266.570312 550.898438 C 261.328125 566.625 255.777344 582.671875 250.84375 598.398438 C 249.605469 602.722656 248.058594 603.027344 244.054688 600.859375 C 229.871094 593.460938 214.433594 590.679688 198.394531 592.835938 C 196.546875 593.140625 195.003906 593.445312 193.460938 594.074219 C 191.609375 595.003906 190.996094 596.855469 191.304688 599.007812 C 191.609375 600.859375 192.847656 602.097656 195.003906 602.402344 C 198.089844 602.402344 201.179688 602.402344 204.25 602.097656 C 218.132812 600.246094 230.480469 604.558594 242.511719 610.425781 C 245.597656 611.96875 245.90625 613.511719 244.667969 616.597656 C 232.941406 651.136719 223.070312 686.609375 215.042969 722.082031 C 214.738281 723.625 214.738281 725.476562 211.957031 725.476562 C 199.3125 725.78125 187.589844 730.410156 175.546875 734.414062 C 149.011719 743.664062 124.339844 756.011719 99.652344 769.582031 C 98.414062 770.191406 96.871094 771.125 95.953125 772.363281 C 94.101562 773.90625 93.796875 776.0625 95.019531 778.214844 C 95.953125 780.066406 98.109375 780.371094 99.957031 780.066406 C 103.046875 779.453125 105.8125 777.605469 108.59375 776.367188 C 136.355469 761.253906 165.046875 747.679688 195.585938 738.742188 C 199.59375 737.503906 203.613281 736.585938 207.617188 735.652344 C 211.316406 734.722656 212.25 735.960938 211.316406 739.65625 C 207.921875 756.621094 205.140625 773.890625 202.984375 791.160156 C 199.285156 822.003906 199.59375 852.859375 204.835938 883.394531 C 209.160156 908.6875 207.921875 933.980469 205.140625 959.578125 C 205.140625 959.886719 204.835938 960.511719 204.53125 961.121094 C 202.679688 959.273438 202.375 957.117188 201.441406 955.878906 Z M 1022.117188 1306.535156 C 1021.8125 1253.167969 1011.9375 1201.664062 994.664062 1151.386719 C 984.175781 1121.15625 973.371094 1090.925781 962.273438 1061.003906 C 961.660156 1059.765625 961.339844 1058.542969 961.035156 1056.996094 L 987.875 1056.996094 C 990.964844 1056.996094 993.425781 1056.066406 993.425781 1052.671875 C 993.425781 1049.28125 991.269531 1048.347656 988.183594 1048.042969 C 979.238281 1047.738281 970.28125 1047.429688 961.644531 1047.113281 C 958.558594 1047.113281 956.710938 1046.5 955.472656 1043.105469 C 939.4375 1002.085938 918.144531 963.527344 890.996094 928.667969 C 890.691406 928.363281 890.691406 928.058594 890.691406 927.738281 C 891.300781 926.195312 892.84375 926.195312 894.082031 925.886719 C 899.328125 923.425781 902.71875 919.714844 905.808594 914.472656 C 916.292969 897.507812 929.5625 883.9375 949.617188 878.695312 C 957.945312 876.234375 966.582031 875.605469 975.527344 875.300781 C 1021.492188 874.6875 1064.992188 883.324219 1104.796875 907.074219 C 1128.550781 921.257812 1148.300781 939.457031 1160.332031 965.058594 C 1163.722656 972.457031 1166.503906 980.171875 1166.8125 988.5 C 1167.117188 994.675781 1165.878906 995.59375 1160.023438 995.289062 C 1148.300781 994.675781 1137.507812 990.964844 1127.007812 986.039062 C 1118.371094 982.035156 1110.347656 977.40625 1102.015625 973.082031 C 1096.773438 970.300781 1091.835938 967.53125 1086.285156 966.296875 C 1076.105469 963.835938 1068.707031 969.382812 1068.707031 979.5625 C 1068.707031 992.199219 1075.496094 1001.460938 1084.742188 1008.550781 C 1097.386719 1018.425781 1112.503906 1021.816406 1127.621094 1025.210938 C 1139.039062 1027.671875 1150.457031 1029.535156 1162.167969 1031.691406 C 1171.414062 1033.234375 1176.671875 1038.476562 1179.132812 1047.109375 C 1182.222656 1057.59375 1184.988281 1067.773438 1184.683594 1078.882812 C 1184.683594 1080.121094 1184.683594 1081.34375 1184.378906 1082.582031 C 1182.832031 1094.304688 1178.523438 1097.390625 1167.105469 1094.917969 C 1157.855469 1093.066406 1149.523438 1089.675781 1141.195312 1085.351562 C 1116.507812 1072.390625 1090.902344 1061.601562 1063.144531 1056.050781 C 1055.746094 1054.507812 1048.027344 1052.964844 1040.308594 1053.589844 C 1037.847656 1053.589844 1035.371094 1053.898438 1033.214844 1054.523438 C 1022.730469 1056.984375 1018.710938 1065.632812 1023.339844 1075.492188 C 1027.667969 1084.433594 1035.066406 1090.605469 1043.394531 1095.542969 C 1057.277344 1104.484375 1073.324219 1108.183594 1089.359375 1110.046875 C 1115.589844 1113.132812 1139.34375 1122.074219 1161.859375 1135.339844 C 1165.253906 1137.1875 1168.339844 1139.664062 1171.109375 1141.816406 C 1183.75 1151.996094 1186.53125 1168.042969 1178.507812 1182.226562 C 1174.808594 1188.707031 1170.175781 1190.554688 1163.085938 1187.46875 C 1155.992188 1184.382812 1150.121094 1179.445312 1144.878906 1173.898438 C 1136.242188 1165.261719 1128.21875 1156 1119.582031 1147.367188 C 1112.792969 1140.582031 1105.074219 1134.40625 1095.828125 1130.707031 C 1088.734375 1127.621094 1081.320312 1126.703125 1073.921875 1128.550781 C 1060.042969 1132.25 1053.257812 1143.972656 1057.566406 1157.851562 C 1060.027344 1165.875 1064.964844 1172.351562 1070.53125 1178.511719 C 1084.714844 1194.546875 1102.921875 1204.417969 1122.667969 1212.441406 C 1129.761719 1215.222656 1136.855469 1218.296875 1143.03125 1222.621094 C 1151.667969 1228.792969 1154.753906 1236.804688 1152.277344 1247.300781 C 1150.121094 1256.242188 1146.421875 1264.878906 1141.167969 1272.59375 C 1139.929688 1274.445312 1138.703125 1276.917969 1136.230469 1276.917969 C 1133.765625 1276.613281 1133.140625 1273.832031 1132.53125 1271.675781 C 1130.375 1264.890625 1128.203125 1258.105469 1126.046875 1251.320312 C 1124.503906 1246.078125 1122.347656 1241.140625 1119.566406 1236.511719 C 1107.230469 1216.152344 1080.390625 1211.828125 1061.878906 1226.945312 C 1049.238281 1237.429688 1046.761719 1252.847656 1055.703125 1266.742188 C 1061.878906 1275.988281 1070.515625 1282.773438 1079.765625 1288.945312 C 1086.855469 1293.578125 1094.269531 1297.886719 1101.058594 1302.824219 C 1108.777344 1308.371094 1108.777344 1311.765625 1100.75 1317.007812 C 1095.8125 1320.09375 1090.570312 1323.179688 1085.019531 1325.335938 C 1056.636719 1337.976562 1035.664062 1358.347656 1022.394531 1386.40625 C 1022.089844 1387.019531 1021.464844 1387.949219 1021.15625 1388.5625 C 1022.089844 1362.03125 1022.394531 1334.277344 1022.089844 1306.507812 Z M 678.433594 501.1875 C 667.320312 539.441406 653.441406 577.066406 644.804688 615.929688 C 635.859375 656.644531 623.203125 696.441406 613.648438 736.847656 C 606.558594 766.148438 602.859375 796.375 595.75 825.992188 C 586.183594 865.789062 581.566406 906.503906 573.847656 946.910156 C 568.910156 972.511719 563.359375 998.109375 560.882812 1024.027344 C 559.339844 1040.382812 557.796875 1057.039062 556.253906 1073.378906 C 553.792969 1096.210938 551.011719 1119.027344 548.535156 1141.859375 C 542.679688 1193.988281 538.046875 1246.121094 539.59375 1298.863281 C 539.898438 1307.496094 540.523438 1315.824219 541.136719 1324.460938 C 541.441406 1326.921875 540.828125 1328.785156 539.898438 1330.941406 C 538.046875 1335.570312 536.503906 1340.507812 534.65625 1345.125 C 533.722656 1347.902344 533.417969 1350.976562 536.808594 1352.214844 C 540.511719 1353.757812 542.359375 1351.28125 543.597656 1348.210938 C 546.683594 1340.1875 549.773438 1332.484375 552.847656 1324.460938 C 569.203125 1278.808594 588.324219 1234.703125 611.773438 1192.445312 C 621.953125 1173.9375 633.984375 1156.363281 647.558594 1139.703125 C 648.488281 1138.46875 649.710938 1135.074219 652.1875 1137.550781 C 654.039062 1139.09375 654.96875 1141.554688 652.800781 1144.335938 C 622.871094 1185.355469 600.660156 1230.699219 582.457031 1277.890625 C 566.417969 1319.84375 552.832031 1362.40625 544.195312 1406.515625 C 542.34375 1415.453125 541.109375 1424.410156 539.5625 1433.351562 C 539.257812 1436.4375 537.714844 1437.050781 535.558594 1435.503906 C 531.554688 1433.042969 528.160156 1430.570312 527.535156 1425.019531 C 526.296875 1411.757812 528.144531 1398.492188 527.226562 1385.226562 C 524.140625 1348.820312 525.074219 1312.125 520.136719 1275.722656 C 517.980469 1260.300781 518.285156 1244.574219 516.742188 1228.835938 C 515.199219 1211.566406 511.804688 1194.601562 511.191406 1177.332031 C 509.648438 1144.945312 500.082031 1113.785156 497.617188 1081.707031 C 494.835938 1046.234375 485.28125 1012 479.71875 977.140625 C 476.019531 954.933594 474.78125 932.101562 469.539062 909.898438 C 462.753906 881.515625 459.054688 852.21875 452.878906 823.839844 C 450.417969 811.8125 446.398438 800.394531 443.308594 788.671875 C 442.699219 786.824219 440.847656 784.042969 444.546875 783.125 C 447.632812 782.511719 447.007812 785.90625 447.632812 787.449219 C 462.445312 829.707031 468.609375 874.121094 478.175781 917.613281 C 486.8125 956.171875 492.054688 995.34375 498.84375 1034.207031 C 502.234375 1053.328125 507.480469 1072.140625 509.636719 1091.578125 C 511.484375 1108.542969 517.035156 1124.589844 520.425781 1140.929688 C 525.363281 1165.289062 525.363281 1189.664062 523.515625 1214.332031 C 523.207031 1217.726562 522.902344 1221.425781 523.207031 1224.816406 C 523.207031 1227.902344 523.820312 1230.992188 527.839844 1231.296875 C 531.859375 1231.601562 532.777344 1228.515625 532.777344 1225.441406 C 533.390625 1214.027344 534.320312 1202.609375 534.625 1190.902344 C 535.558594 1156.042969 539.5625 1121.503906 542.957031 1086.644531 C 545.113281 1062.585938 547.28125 1038.53125 550.050781 1014.460938 C 554.054688 981.773438 560.84375 950 568.253906 917.917969 C 577.824219 876.59375 584.289062 834.335938 592.941406 792.996094 C 608.976562 715.574219 629.65625 639.082031 654.648438 564.136719 C 661.742188 542.847656 668.835938 521.570312 676.25 500.28125 C 676.859375 498.128906 677.484375 495.652344 679.640625 493.496094 C 680.878906 496.890625 679.03125 499.046875 678.402344 501.214844 Z M 825.589844 267.375 C 814.476562 268.917969 803.988281 272.617188 793.503906 275.703125 C 784.5625 278.484375 778.691406 291.125 781.472656 299.148438 C 784.253906 307.476562 793.199219 310.871094 802.765625 306.238281 C 814.488281 300.691406 826.519531 297.910156 839.480469 297.910156 C 849.050781 297.910156 858.300781 296.367188 866.019531 289.886719 C 870.34375 286.1875 873.738281 281.863281 872.191406 276.007812 C 870.648438 270.460938 865.710938 267.988281 860.46875 266.761719 C 855.835938 265.523438 851.21875 265.523438 846.589844 265.523438 C 839.496094 265.21875 832.710938 266.457031 825.617188 267.375 Z M 790.734375 293.90625 C 790.734375 289.273438 793.199219 285.578125 797.214844 284.03125 C 815.726562 276.636719 834.851562 274.160156 854.597656 275.398438 C 857.382812 275.703125 861.691406 275.398438 862 278.789062 C 862.304688 281.878906 858.605469 283.421875 855.824219 284.644531 C 849.34375 288.039062 841.945312 288.34375 834.851562 288.34375 C 822.820312 288.34375 811.402344 290.804688 800.609375 296.367188 C 799.371094 296.976562 797.828125 297.605469 796.285156 297.910156 C 795.671875 298.214844 795.351562 297.910156 794.742188 298.214844 C 791.960938 298.214844 790.734375 296.671875 790.734375 293.890625 Z M 866.9375 395.382812 C 879.273438 390.449219 891.300781 385.207031 903.347656 379.964844 C 907.351562 378.421875 910.132812 375.332031 912.289062 371.632812 C 916.292969 364.847656 914.75 357.757812 907.964844 353.433594 C 903.636719 350.652344 898.714844 348.800781 893.777344 349.429688 C 879.273438 351.277344 865.085938 354.976562 852.75 363.609375 C 849.664062 365.765625 847.199219 368.546875 845.351562 371.632812 C 842.261719 377.183594 841.027344 382.746094 844.113281 388.597656 C 847.507812 394.453125 853.054688 396.621094 860.46875 396.621094 C 862.316406 396.925781 864.792969 396.316406 866.949219 395.382812 Z M 904.261719 363.917969 C 905.5 367.921875 901.175781 370.398438 898.089844 371.941406 C 886.671875 376.875 875.253906 381.507812 863.847656 386.441406 C 861.691406 387.375 859.523438 387.679688 857.0625 387.054688 C 852.734375 385.816406 851.207031 382.730469 852.734375 378.726562 C 853.667969 376.265625 855.199219 374.09375 857.367188 372.550781 C 865.699219 366.378906 874.945312 362.066406 885.445312 361.136719 C 888.226562 360.832031 891.300781 360.203125 894.390625 359.59375 C 898.089844 359.898438 903.027344 359.898438 904.261719 363.917969 Z M 276.140625 645.839844 C 267.199219 650.777344 266.890625 660.34375 275.207031 665.890625 C 276.75 666.824219 278.296875 667.742188 279.839844 668.351562 C 290.632812 671.746094 301.742188 673.59375 313.160156 674.527344 C 323.648438 675.140625 329.824219 665.585938 325.5 657.257812 C 322.714844 651.707031 318.710938 647.382812 312.535156 645.230469 C 306.679688 643.378906 300.507812 642.140625 292.175781 642.140625 C 287.851562 642.449219 281.6875 643.074219 276.140625 645.839844 Z M 315.011719 659.730469 C 315.625 660.96875 317.167969 661.886719 316.554688 663.429688 C 315.945312 664.667969 314.398438 665.585938 313.160156 665.28125 C 302.980469 663.125 292.496094 662.820312 282.621094 659.105469 C 281.382812 658.496094 279.535156 657.867188 279.535156 656.019531 C 279.839844 654.476562 281.382812 654.171875 282.621094 653.558594 C 286.625 652.015625 290.644531 652.015625 294.957031 651.707031 C 302.355469 652.320312 310.378906 651.707031 315.011719 659.730469 Z M 938.503906 174.835938 C 931.410156 179.46875 925.542969 185.320312 923.386719 193.957031 C 920.300781 205.984375 926.78125 216.164062 939.117188 218.011719 C 945.902344 218.945312 952.078125 217.398438 957.933594 214.617188 C 968.113281 209.683594 978.90625 207.527344 990.324219 207.527344 C 992.171875 207.527344 993.71875 207.527344 995.566406 207.222656 C 1004.511719 206.609375 1011.601562 201.046875 1014.078125 193.34375 C 1016.554688 185.640625 1013.773438 177.617188 1006.359375 172.375 C 999.265625 167.132812 991.546875 162.503906 983.84375 164.351562 C 966.265625 164.351562 951.453125 166.507812 938.492188 174.835938 Z M 933.261719 194.886719 C 935.417969 189.339844 939.742188 185.320312 944.679688 182.25 C 958.558594 174.226562 973.371094 172.070312 989.101562 174.226562 C 993.730469 174.835938 997.429688 177.617188 1000.824219 180.703125 C 1003.605469 183.164062 1005.148438 186.253906 1004.21875 189.953125 C 1003.285156 193.648438 1000.824219 195.804688 997.125 196.738281 C 994.34375 197.667969 991.269531 197.667969 988.488281 197.667969 C 977.070312 197.976562 965.972656 199.519531 955.792969 204.761719 C 951.785156 206.609375 947.460938 208.460938 943.761719 208.460938 C 934.191406 208.460938 930.1875 202.605469 933.273438 194.886719 Z M 1030.128906 599.578125 C 1040.003906 599.578125 1045.855469 595.574219 1047.707031 587.855469 C 1049.25 581.378906 1045.550781 575.21875 1037.21875 571.199219 C 1029.195312 567.195312 1020.558594 565.957031 1011.921875 564.71875 C 1004.828125 563.789062 998.65625 565.957031 993.410156 570.894531 C 989.085938 574.898438 987.863281 582.613281 990.019531 588.789062 C 992.171875 594.644531 996.5 598.035156 1002.980469 598.355469 C 1011.3125 598.355469 1019.640625 598.660156 1026.734375 599.59375 L 1030.128906 599.59375 Z M 1004.828125 589.09375 C 1002.046875 589.09375 999.890625 588.484375 999.28125 585.394531 C 998.667969 582.613281 998.347656 579.847656 1001.128906 577.679688 C 1004.828125 574.589844 1008.222656 572.742188 1013.464844 573.980469 C 1019.945312 575.523438 1026.429688 576.441406 1032.589844 579.222656 C 1035.371094 580.765625 1039.375 582.003906 1038.445312 586.007812 C 1037.511719 590.011719 1033.507812 590.011719 1030.113281 589.707031 L 1027.332031 589.707031 C 1020.546875 588.773438 1012.828125 588.773438 1004.816406 589.09375 Z M 870.636719 1027.394531 C 857.671875 1028.632812 849.035156 1036.335938 842.25 1046.511719 C 840.398438 1048.976562 840.09375 1052.0625 840.398438 1054.84375 C 841.636719 1063.171875 849.035156 1067.800781 858.605469 1065.328125 C 870.328125 1062.546875 882.359375 1060.085938 894.695312 1059.152344 C 899.632812 1058.847656 904.265625 1057.609375 908.574219 1055.453125 C 913.816406 1052.671875 918.144531 1048.976562 918.144531 1042.816406 C 918.144531 1036.335938 913.816406 1032.636719 908.574219 1030.175781 C 901.175781 1026.78125 893.457031 1026.171875 883.277344 1025.851562 C 880.816406 1025.851562 875.558594 1027.089844 870.636719 1027.394531 Z M 904.261719 1038.808594 C 906.113281 1039.421875 907.964844 1040.351562 908.269531 1042.507812 C 908.574219 1044.96875 906.113281 1045.902344 904.261719 1046.832031 C 900.257812 1048.683594 895.933594 1049.613281 891.621094 1049.921875 C 880.203125 1050.53125 868.785156 1053.007812 857.6875 1055.773438 C 855.226562 1056.386719 852.445312 1057.011719 850.898438 1054.535156 C 849.050781 1051.753906 852.136719 1050.210938 853.363281 1048.363281 C 860.761719 1037.253906 872.179688 1035.097656 883.597656 1035.722656 C 891.316406 1035.722656 897.78125 1036.335938 904.261719 1038.808594 Z M 919.992188 1106.972656 C 908.882812 1108.820312 898.699219 1112.214844 890.996094 1121.15625 C 886.992188 1126.089844 886.363281 1135.660156 890.0625 1141.816406 C 892.84375 1147.058594 898.089844 1149.214844 905.488281 1147.367188 C 916.601562 1144.585938 927.390625 1141.191406 938.183594 1138.121094 C 941.273438 1137.1875 943.734375 1135.660156 946.210938 1133.488281 C 955.152344 1125.773438 953.929688 1114.980469 943.425781 1109.738281 C 938.796875 1107.277344 933.859375 1106.957031 928.617188 1106.652344 C 925.835938 1106.347656 922.761719 1106.347656 919.980469 1106.957031 Z M 938.503906 1117.46875 C 943.136719 1119.625 943.441406 1122.710938 939.4375 1125.800781 C 937.890625 1127.039062 936.042969 1128.261719 933.886719 1128.886719 C 924.320312 1131.667969 914.765625 1134.742188 905.195312 1137.214844 C 903.039062 1137.828125 899.644531 1139.371094 898.101562 1135.976562 C 896.863281 1132.890625 896.558594 1129.804688 899.035156 1126.730469 C 906.433594 1117.164062 917.238281 1117.164062 927.726562 1115.316406 C 931.730469 1115.316406 935.125 1115.925781 938.519531 1117.46875 Z M 171.25 470.957031 C 162.917969 474.65625 156.4375 478.980469 153.042969 487.617188 C 149.34375 497.488281 153.347656 507.359375 161.984375 510.128906 C 166.921875 511.671875 171.859375 510.738281 176.171875 508.277344 C 187.894531 501.492188 201.164062 498.40625 214.113281 495.945312 C 219.96875 494.707031 225.53125 492.859375 230.148438 488.855469 C 238.785156 481.457031 237.242188 470.957031 226.449219 466.648438 C 220.273438 464.1875 213.804688 464.1875 207.632812 463.867188 C 195.296875 464.476562 183.265625 465.714844 171.222656 470.957031 Z M 222.457031 475.269531 C 224 475.878906 225.542969 476.199219 225.851562 478.050781 C 226.15625 480.203125 224.613281 481.136719 223.070312 482.054688 C 218.132812 485.140625 212.886719 486.378906 207.339844 487.296875 C 195.613281 489.453125 184.195312 492.230469 174.015625 498.40625 L 173.710938 498.710938 C 170.011719 499.644531 166.3125 503.035156 162.917969 498.710938 C 160.761719 495.929688 161.984375 489.464844 165.699219 486.378906 C 171.25 481.441406 177.421875 478.050781 184.515625 476.199219 C 191.914062 474.042969 199.632812 473.417969 207.351562 473.113281 C 212.289062 472.808594 217.535156 473.417969 222.46875 475.269531 Z M 988.167969 955.214844 C 980.449219 956.144531 973.050781 957.367188 966.265625 961.386719 C 954.539062 967.867188 953.929688 978.964844 964.71875 986.984375 C 972.4375 992.535156 981.074219 994.703125 990.019531 992.535156 C 1002.980469 989.449219 1015.929688 987.292969 1029.195312 986.679688 C 1034.4375 986.375 1038.445312 983.59375 1039.988281 978.046875 C 1041.53125 972.804688 1039.054688 967.5625 1034.746094 964.167969 C 1024.871094 956.769531 1014.382812 953.378906 1002.046875 953.988281 C 997.109375 954.601562 992.480469 954.601562 988.167969 955.226562 Z M 1027.664062 971.871094 C 1028.902344 972.484375 1030.128906 973.414062 1029.820312 974.957031 C 1029.515625 976.5 1027.972656 976.808594 1026.429688 976.808594 C 1022.101562 977.113281 1018.097656 977.417969 1013.785156 977.417969 C 1004.84375 977.417969 996.511719 980.8125 987.554688 982.355469 C 981.074219 983.59375 975.527344 982.050781 970.28125 978.351562 C 965.347656 974.957031 965.347656 971.871094 970.894531 969.105469 C 980.769531 964.167969 991.5625 963.25 1004.21875 962.929688 C 1012.546875 961.691406 1019.640625 968.171875 1027.664062 971.871094 Z M 1027.664062 971.871094 " fill-opacity="1" fill-rule="nonzero"/></g></svg>